<svg xmlns="http://www.w3.org/2000/svg" xmlns:xlink="http://www.w3.org/1999/xlink" viewBox="0,0,256,256" width="50px" height="50px"><g fill="#ffffff" fill-rule="nonzero" stroke="none" stroke-width="1" stroke-linecap="butt" stroke-linejoin="miter" stroke-miterlimit="10" stroke-dasharray="" stroke-dashoffset="0" font-family="none" font-weight="none" font-size="none" text-anchor="none" style="mix-blend-mode: normal"><g transform="scale(5.12,5.12)"><path d="M16.28125,0.03125c-0.12891,0.02344 -0.26172,0.04688 -0.375,0.125c-0.45703,0.30859 -0.55859,0.94922 -0.25,1.40625l2.15625,3.21875c-3.33203,1.76563 -5.81641,4.69922 -6.625,8.21875h27.625c-0.80859,-3.51953 -3.29297,-6.45312 -6.625,-8.21875l2.15625,-3.21875c0.30859,-0.45703 0.20703,-1.09766 -0.25,-1.40625c-0.46094,-0.30859 -1.09766,-0.17578 -1.40625,0.28125l-2.375,3.5c-1.64844,-0.60156 -3.4375,-0.9375 -5.3125,-0.9375c-1.875,0 -3.66406,0.33594 -5.3125,0.9375l-2.375,-3.5c-0.23047,-0.34375 -0.64844,-0.48047 -1.03125,-0.40625zM19.5,8c0.82813,0 1.5,0.67188 1.5,1.5c0,0.83203 -0.67187,1.5 -1.5,1.5c-0.83203,0 -1.5,-0.66797 -1.5,-1.5c0,-0.82812 0.66797,-1.5 1.5,-1.5zM30.5,8c0.83203,0 1.5,0.67188 1.5,1.5c0,0.83203 -0.66797,1.5 -1.5,1.5c-0.82812,0 -1.5,-0.66797 -1.5,-1.5c0,-0.82812 0.67188,-1.5 1.5,-1.5zM8,15c-1.65625,0 -3,1.34375 -3,3v14c0,1.65625 1.34375,3 3,3c0.35156,0 0.6875,-0.07422 1,-0.1875v-19.625c-0.3125,-0.11328 -0.64844,-0.1875 -1,-0.1875zM11,15v22c0,1.65234 1.34766,3 3,3h22c1.65234,0 3,-1.34766 3,-3v-22zM42,15c-0.35156,0 -0.6875,0.07422 -1,0.1875v19.625c0.3125,0.10938 0.64844,0.1875 1,0.1875c1.65625,0 3,-1.34375 3,-3v-14c0,-1.65625 -1.34375,-3 -3,-3zM15,42v4c0,2.20703 1.79297,4 4,4c2.20703,0 4,-1.79297 4,-4v-4zM27,42v4c0,2.20703 1.79297,4 4,4c2.20703,0 4,-1.79297 4,-4v-4z"></path></g></g></svg>